<svg id="Guides" xmlns="http://www.w3.org/2000/svg" xmlns:xlink="http://www.w3.org/1999/xlink" viewBox="0 0 1920 1080"><defs><style>.cls-1{fill:none;}.cls-2{clip-path:url(#clip-path);}.cls-3{fill:#fff;}.cls-4{fill:#3aaa35;}.cls-5{fill:#95c11f;}</style><clipPath id="clip-path"><polygon class="cls-1" points="-0.45 1988.93 768.45 1500.49 768.45 1202 -0.45 1202 -0.45 1988.93"/></clipPath></defs><path class="cls-3" d="M378.74,610.4a1.24,1.24,0,0,1-1.41-1.4V507.79a1.32,1.32,0,0,1,1.41-1.48c2.82-.14,5.77-.27,8.88-.38s6.13-.22,9.12-.29,5.84-.13,8.59-.17,5.2-.07,7.36-.07q9.65,0,16.83.66a69.55,69.55,0,0,1,12.36,2.15,28.93,28.93,0,0,1,8.56,3.84,18,18,0,0,1,5.35,5.78,23.93,23.93,0,0,1,2.75,7.95,62.58,62.58,0,0,1,.77,10.32v8.38a63.16,63.16,0,0,1-.77,10.4,24,24,0,0,1-2.75,8,17.83,17.83,0,0,1-5.35,5.77,28.68,28.68,0,0,1-8.56,3.85,67.25,67.25,0,0,1-12.36,2.1q-7.18.65-16.83.64h-5.64c-1,0-1.91,0-2.78,0s-1.61,0-2.22-.1v34a1.24,1.24,0,0,1-1.4,1.4Zm34.37-83.1-2.68,0-2.89.07c-1,0-1.94.07-2.88.15s-1.81.13-2.61.17v25.14c.8.1,1.67.17,2.61.22s1.9.08,2.88.1l2.89.07c.95,0,1.83,0,2.68,0q6.61,0,10.78-.35a18.77,18.77,0,0,0,6.51-1.52,6.21,6.21,0,0,0,3.21-3.24,15.25,15.25,0,0,0,.84-5.6V538a15.31,15.31,0,0,0-.84-5.56,6.08,6.08,0,0,0-3.21-3.24,19.5,19.5,0,0,0-6.51-1.51Q419.72,527.3,413.11,527.3Z"/><path class="cls-3" d="M561.23,610.4a2.43,2.43,0,0,1-1.19-.24,2.25,2.25,0,0,1-.78-1l-16.13-34.65h-2c-1.83,0-3.66,0-5.49-.11s-3.9-.17-6.2-.32V609a1.24,1.24,0,0,1-1.4,1.4H506.09a1.24,1.24,0,0,1-1.41-1.4V507.93a1.32,1.32,0,0,1,1.41-1.48q8.59-.56,16.62-.81c5.36-.16,10.61-.24,15.78-.24q9.85,0,17.29.63a77.13,77.13,0,0,1,12.78,2,31,31,0,0,1,8.88,3.67,17.65,17.65,0,0,1,5.59,5.59,22.5,22.5,0,0,1,2.92,7.82,55,55,0,0,1,.85,10.25v9.37a49,49,0,0,1-1.58,13.41,17.93,17.93,0,0,1-5.81,9q-4.1,3.39-12.4,5.21,1.2,1.9,2.5,4c.87,1.44,1.77,3,2.72,4.83l14.92,27.89c.43.84.17,1.26-.77,1.26ZM540,527.3l-2.57,0-2.79.07c-.94,0-1.86.07-2.78.15s-1.75.13-2.5.17v24.44q4.51.42,11.34.42,6.56,0,10.71-.31a19.51,19.51,0,0,0,6.48-1.41,6.19,6.19,0,0,0,3.2-3.13,13.93,13.93,0,0,0,.88-5.43v-4.72a14.5,14.5,0,0,0-.84-5.42,6,6,0,0,0-3.24-3.13,20.12,20.12,0,0,0-6.7-1.41C548.37,527.4,544.64,527.3,540,527.3Z"/><path class="cls-3" d="M674.92,612.59a68.12,68.12,0,0,1-18.84-2.39,32.23,32.23,0,0,1-14-8.07,36.05,36.05,0,0,1-8.66-15q-3-9.36-3-23.31v-141q0-13.8,3-23.1a36.16,36.16,0,0,1,8.66-15,32.56,32.56,0,0,1,14-8.09,67,67,0,0,1,18.84-2.43,68.67,68.67,0,0,1,18.94,2.39,32.16,32.16,0,0,1,14,8.06,36.3,36.3,0,0,1,8.67,15q3,9.38,3,23.24V564q0,13.88-3,23.17a36.22,36.22,0,0,1-8.67,15,32.08,32.08,0,0,1-14,8.07A68.67,68.67,0,0,1,674.92,612.59Zm0-213.91a29,29,0,0,0-8.63,1.16,13.93,13.93,0,0,0-6.19,3.87,17.22,17.22,0,0,0-3.74,7.22,43,43,0,0,0-1.23,11.13V564.55a43.2,43.2,0,0,0,1.23,11.2A17.45,17.45,0,0,0,660.1,583a13.83,13.83,0,0,0,6.19,3.91,29,29,0,0,0,8.63,1.16,29.33,29.33,0,0,0,8.66-1.16,13.89,13.89,0,0,0,6.24-3.91,17.84,17.84,0,0,0,3.77-7.26,42.22,42.22,0,0,0,1.26-11.2V422.2a42,42,0,0,0-1.26-11.13,17.86,17.86,0,0,0-3.77-7.25,14.13,14.13,0,0,0-6.24-3.95A28.64,28.64,0,0,0,674.92,398.68Z"/><path class="cls-3" d="M822.51,481.64a2.48,2.48,0,0,1-1.2-.24,2.16,2.16,0,0,1-.77-1l-16.13-34.65h-2c-1.83,0-3.67,0-5.5-.11s-3.89-.17-6.19-.31v34.93a1.25,1.25,0,0,1-1.41,1.41H767.36a1.24,1.24,0,0,1-1.4-1.41V379.17a1.3,1.3,0,0,1,1.4-1.48c5.74-.37,11.27-.64,16.62-.81s10.61-.25,15.78-.25q9.86,0,17.29.63a76.69,76.69,0,0,1,12.78,2.05,31,31,0,0,1,8.88,3.67,17.69,17.69,0,0,1,5.6,5.59,22.7,22.7,0,0,1,2.92,7.82,55.81,55.81,0,0,1,.85,10.25V416a48.62,48.62,0,0,1-1.59,13.42,17.8,17.8,0,0,1-5.81,9q-4.08,3.39-12.39,5.21c.8,1.26,1.62,2.62,2.5,4.05s1.77,3,2.71,4.82l14.93,27.89c.42.85.16,1.27-.78,1.27Zm-21.2-83.1-2.57,0-2.78.07c-.94,0-1.87.07-2.78.14s-1.75.13-2.5.17V423.4q4.5.42,11.34.42c4.36,0,7.93-.1,10.7-.32a19,19,0,0,0,6.48-1.41,6.14,6.14,0,0,0,3.2-3.12,13.93,13.93,0,0,0,.88-5.43v-4.72a14.52,14.52,0,0,0-.84-5.43,6,6,0,0,0-3.24-3.13,19.89,19.89,0,0,0-6.69-1.4C809.65,398.64,805.91,398.54,801.31,398.54Z"/><path class="cls-3" d="M935.63,443.33a1.32,1.32,0,0,1-1.41-1.48v-17a1.25,1.25,0,0,1,1.41-1.41h35a1.25,1.25,0,0,1,1.41,1.41v52.12a2.14,2.14,0,0,1-.28,1.19,2.11,2.11,0,0,1-1.06.71,68.87,68.87,0,0,1-8.06,2.46q-4.11,1-8.24,1.55c-2.74.38-5.45.63-8.1.77s-5.17.22-7.57.22a77.39,77.39,0,0,1-20.28-2.4,33.92,33.92,0,0,1-14.79-8.07,35.38,35.38,0,0,1-9-15Q891.55,449,891.55,435V424.24q0-13.8,3.06-23.14a35.51,35.51,0,0,1,9-15A34.11,34.11,0,0,1,918.45,378a77.84,77.84,0,0,1,20.28-2.39q3.45,0,7.25.24t7.47.74q3.66.5,6.94,1.2a47.13,47.13,0,0,1,5.81,1.62,2,2,0,0,1,1,.67,1.64,1.64,0,0,1,.1,1.17l-3.17,19.15a1.26,1.26,0,0,1-1.62,1.2,138.24,138.24,0,0,0-22.81-1.91,41.54,41.54,0,0,0-10.46,1.16,16.57,16.57,0,0,0-7.29,3.92,16.33,16.33,0,0,0-4.26,7.32,40.15,40.15,0,0,0-1.38,11.41v12.25a44,44,0,0,0,1.27,11.48,16.7,16.7,0,0,0,3.95,7.33,14.74,14.74,0,0,0,6.83,3.88,38.82,38.82,0,0,0,9.93,1.12h4.54c1.53,0,3,0,4.54-.14V444Z"/><path class="cls-3" d="M1011.08,481.64c-.94,0-1.27-.44-1-1.33L1040.8,379.1a2.18,2.18,0,0,1,.67-1.06,2,2,0,0,1,1.16-.27h31.13a2,2,0,0,1,1.16.27,2.18,2.18,0,0,1,.67,1.06l30.85,101.21c.28.89,0,1.33-1,1.33h-24.29a1.65,1.65,0,0,1-1.77-1.33l-4.22-15.57h-34L1037,480.31a1.63,1.63,0,0,1-1.76,1.33Zm47.05-79.94L1047,443.12h22.39Z"/><path class="cls-3" d="M1143.79,481.64a1.25,1.25,0,0,1-1.41-1.41V379.17a1.24,1.24,0,0,1,1.41-1.4h23.81a2.06,2.06,0,0,1,2.11,1.18l30.92,52.9a28.59,28.59,0,0,1,1.33,2.54c.38.79.71,1.49,1,2.11s.5,1.1.64,1.47a3.73,3.73,0,0,0,.23.57l.12-59.37a1.24,1.24,0,0,1,1.41-1.4h21.83a1.24,1.24,0,0,1,1.41,1.4V480.23a1.25,1.25,0,0,1-1.41,1.41h-23.8a2.71,2.71,0,0,1-1.24-.24,2.56,2.56,0,0,1-.88-.95l-30.7-52.61a38.34,38.34,0,0,1-2.57-5.11,6.66,6.66,0,0,0-.89-1.93v59.43a1.24,1.24,0,0,1-1.4,1.41Z"/><path class="cls-3" d="M1276.22,481.64a1.24,1.24,0,0,1-1.4-1.41V379.17a1.23,1.23,0,0,1,1.4-1.4h21.91a1.24,1.24,0,0,1,1.41,1.4V480.23a1.25,1.25,0,0,1-1.41,1.41Z"/><path class="cls-3" d="M1388.1,483.83a73,73,0,0,1-19.55-2.4,33.72,33.72,0,0,1-14.58-8.07,36.25,36.25,0,0,1-9.09-15q-3.12-9.36-3.13-23.31V424.24q0-13.8,3.13-23.14a36.39,36.39,0,0,1,9.09-15,33.91,33.91,0,0,1,14.58-8.06,73.45,73.45,0,0,1,19.55-2.39q3.8,0,7.57.24t7.22.74q3.43.5,6.51,1.2a43.22,43.22,0,0,1,5.46,1.62,2,2,0,0,1,1,.67,1.69,1.69,0,0,1,.11,1.17l-3.17,19.15a1.21,1.21,0,0,1-1.62,1.13,83.66,83.66,0,0,0-11.06-1.66q-5.57-.45-11.06-.45a35.72,35.72,0,0,0-9.72,1.19,16,16,0,0,0-7.07,4,17.45,17.45,0,0,0-4.3,7.42,39,39,0,0,0-1.44,11.45v12.25A39.15,39.15,0,0,0,1368,447.3a18,18,0,0,0,4.26,7.47,15.59,15.59,0,0,0,7,4.05,36,36,0,0,0,9.79,1.2q5.85,0,11.62-.36t11.48-1a1.25,1.25,0,0,1,1.62,1.19l2.75,19.65a1.32,1.32,0,0,1-1.13,1.69c-1.65.42-3.51.79-5.6,1.13s-4.31.61-6.65.84-4.81.41-7.36.53S1390.68,483.83,1388.1,483.83Z"/><path class="cls-3" d="M1447.21,481.64c-.94,0-1.27-.44-1-1.33l30.71-101.21a2.18,2.18,0,0,1,.67-1.06,2,2,0,0,1,1.16-.27h31.13a1.93,1.93,0,0,1,1.16.27,2.18,2.18,0,0,1,.67,1.06l30.85,101.21c.28.89,0,1.33-1,1.33h-24.29a1.63,1.63,0,0,1-1.76-1.33l-4.23-15.57h-34l-4.15,15.57a1.65,1.65,0,0,1-1.76,1.33Zm47-79.94-11.13,41.42h22.39Z"/><path class="cls-4" d="M1322.62,275.76c0-42-35.44-56.63-35.44-56.63V332.4S1322.62,317.78,1322.62,275.76Z"/><path class="cls-5" d="M1287.18,332.4V219.13s-35.45,14.61-35.45,56.63S1287.18,332.4,1287.18,332.4Z"/><path class="cls-3" d="M1174.76,630.27c0,10.63-4.73,16.63-13.13,16.63h-5.79v18.73h-9.79V613.3h15.09C1169.87,613.3,1174.76,619.3,1174.76,630.27Zm-18.92,8.88h5c3,0,4.32-2.33,4.32-8.81,0-6.64-1.31-8.64-4.32-8.64h-5Z"/><path class="cls-3" d="M1195.23,644.43h-3.42v21.2H1182V613.3h14.52c9.54,0,13.7,5.44,13.7,15,0,7.28-2.12,11.76-6.36,13.68l8.56,23.61h-10.27Zm-3.42-7.69H1196c3.59,0,4.73-2,4.73-7.59,0-6-1.39-7.53-4.73-7.53h-4.16Z"/><path class="cls-3" d="M1247.92,629.15v20.63c0,10.41-5.22,16.57-15.25,16.57s-15.25-6.16-15.25-16.57V629.15c0-10.41,5.22-16.57,15.25-16.57S1247.92,618.74,1247.92,629.15Zm-9.71,0c0-6-1.71-8.17-5.54-8.17s-5.55,2.08-5.55,8.17v20.63c0,6.16,1.71,8.32,5.55,8.32s5.54-2.16,5.54-8.32Z"/><path class="cls-3" d="M1261.38,665.63h-9.71l12-52.33h11.42l12,52.33h-9.87l-2.12-11.53H1263.5Zm3.5-18.89h8.81l-4.32-23.52h-.16Z"/><path class="cls-3" d="M1318.38,624.82l-7.42,2.33c-.65-4.25-2.28-6.09-5.14-6.09-3.67,0-5.3,2.48-5.3,7.68v22.32c0,4.41,1.63,7.13,5.22,7.13,2.94,0,4.49-1.68,5.3-6.48l7.43,2.15c-1.39,8.73-5.88,12.49-13.54,12.49-8.73,0-14.11-5.92-14.11-15.2V628.74c0-10.08,5.54-16.16,14.27-16.16C1312.19,612.58,1317.16,617.54,1318.38,624.82Z"/><path class="cls-3" d="M1350.6,613.3v8.8h-9.22v43.53h-9.78V622.1h-9.14v-8.8Z"/><path class="cls-3" d="M1367.32,613.3v52.33h-9.71V613.3Z"/><path class="cls-3" d="M1396.84,665.63H1386.4l-12.64-52.33h10.44l7.34,39.45h.17l7.34-39.45h10.52Z"/><path class="cls-3" d="M1440.07,613.3V622h-14.93v12.72h11.26v7.69h-11.26V657h15.5v8.65h-25.28V613.3Z"/><path class="cls-3" d="M1174.76,710.27c0,10.63-4.73,16.63-13.13,16.63h-5.79v18.73h-9.79V693.3h15.09C1169.87,693.3,1174.76,699.3,1174.76,710.27Zm-18.92,8.88h5c3,0,4.32-2.33,4.32-8.81,0-6.64-1.31-8.64-4.32-8.64h-5Z"/><path class="cls-3" d="M1195.23,724.43h-3.42v21.2H1182V693.3h14.52c9.54,0,13.7,5.44,13.7,15,0,7.28-2.12,11.76-6.36,13.68l8.56,23.61h-10.27Zm-3.42-7.69H1196c3.59,0,4.73-2,4.73-7.59,0-6-1.39-7.53-4.73-7.53h-4.16Z"/><path class="cls-3" d="M1247.92,709.15v20.63c0,10.41-5.22,16.57-15.25,16.57s-15.25-6.16-15.25-16.57V709.15c0-10.41,5.22-16.57,15.25-16.57S1247.92,698.74,1247.92,709.15Zm-9.71,0c0-6-1.71-8.17-5.54-8.17s-5.55,2.08-5.55,8.17v20.63c0,6.16,1.71,8.32,5.55,8.32s5.54-2.16,5.54-8.32Z"/><path class="cls-3" d="M1281.11,693.3V702h-15.17v13.44h13v8.16h-13v22h-9.78V693.3Z"/><path class="cls-3" d="M1313.08,693.3V702h-14.92v12.72h11.25v7.69h-11.25V737h15.49v8.65h-25.28V693.3Z"/><path class="cls-3" d="M1346.11,703.86l-7,2.88c-1.06-4.4-3.26-6.08-6.28-6.08s-4.32,1.76-4.32,5.28c0,9.12,17.7,9.68,17.7,25.69,0,9.43-5.31,14.72-13.87,14.72-6.85,0-12.8-4.56-14.11-12.64l7.5-2.32c1.15,5.12,3.84,6.88,6.61,6.88,3.26,0,4.65-1.68,4.65-5.29,0-10.63-18.11-11.12-18.11-26.56,0-7.76,4.9-13.84,13.21-13.84C1339.83,692.58,1343.91,696.9,1346.11,703.86Z"/><path class="cls-3" d="M1378.41,703.86l-7,2.88c-1.06-4.4-3.27-6.08-6.28-6.08s-4.33,1.76-4.33,5.28c0,9.12,17.7,9.68,17.7,25.69,0,9.43-5.3,14.72-13.86,14.72-6.85,0-12.81-4.56-14.11-12.64l7.5-2.32c1.14,5.12,3.83,6.88,6.61,6.88,3.26,0,4.65-1.68,4.65-5.29,0-10.63-18.11-11.12-18.11-26.56,0-7.76,4.89-13.84,13.21-13.84C1372.13,692.58,1376.21,696.9,1378.41,703.86Z"/><path class="cls-3" d="M1395.78,693.3v52.33h-9.7V693.3Z"/><path class="cls-3" d="M1435.09,709.15v20.63c0,10.41-5.22,16.57-15.25,16.57s-15.25-6.16-15.25-16.57V709.15c0-10.41,5.22-16.57,15.25-16.57S1435.09,698.74,1435.09,709.15Zm-9.7,0c0-6-1.72-8.17-5.55-8.17s-5.55,2.08-5.55,8.17v20.63c0,6.16,1.72,8.32,5.55,8.32s5.55-2.16,5.55-8.32Z"/><path class="cls-3" d="M1450.51,693.3l13.86,29.05h.16V693.3H1473v52.33h-6.61l-14.35-30.17h-.17v30.17h-8.56V693.3Z"/><path class="cls-3" d="M1488.84,745.63h-9.71l12-52.33h11.42l12,52.33h-9.87l-2.12-11.53H1491Zm3.51-18.89h8.8l-4.32-23.52h-.16Z"/><path class="cls-3" d="M1530.11,693.3v43.45h14.27v8.88h-23.73V693.3Z"/><path class="cls-3" d="M1174.76,790.27c0,10.63-4.73,16.63-13.13,16.63h-5.79v18.73h-9.79V773.3h15.09C1169.87,773.3,1174.76,779.3,1174.76,790.27Zm-18.92,8.88h5c3,0,4.32-2.33,4.32-8.81,0-6.64-1.31-8.64-4.32-8.64h-5Z"/><path class="cls-3" d="M1195.23,804.43h-3.42v21.2H1182V773.3h14.52c9.54,0,13.7,5.44,13.7,15,0,7.28-2.12,11.76-6.36,13.68l8.56,23.61h-10.27Zm-3.42-7.69H1196c3.59,0,4.73-2,4.73-7.59,0-6-1.39-7.53-4.73-7.53h-4.16Z"/><path class="cls-3" d="M1247.92,789.15v20.63c0,10.41-5.22,16.57-15.25,16.57s-15.25-6.16-15.25-16.57V789.15c0-10.41,5.22-16.57,15.25-16.57S1247.92,778.74,1247.92,789.15Zm-9.71,0c0-6-1.71-8.17-5.54-8.17s-5.55,2.08-5.55,8.17v20.63c0,6.16,1.71,8.32,5.55,8.32s5.54-2.16,5.54-8.32Z"/><path class="cls-3" d="M1285,784.74l-7.34,2.32c-1.39-4.56-3.35-6.16-6.28-6.16-4.57,0-6.61,2.8-6.61,9.12v19.45c0,5.76,2.28,8.24,6.44,8.24a5.66,5.66,0,0,0,5.3-3v-9H1272V799h13v26.65H1277v-2.72a12,12,0,0,1-8.64,3.44c-8,0-13.38-5.36-13.38-16.8V789.94c0-10.48,5-17.44,15.58-17.44C1278.09,772.5,1283.56,776.82,1285,784.74Z"/><path class="cls-3" d="M1306.64,804.43h-3.43v21.2h-9.78V773.3H1308c9.54,0,13.7,5.44,13.7,15,0,7.28-2.12,11.76-6.36,13.68l8.56,23.61h-10.28Zm-3.43-7.69h4.16c3.59,0,4.73-2,4.73-7.59,0-6-1.38-7.53-4.73-7.53h-4.16Z"/><path class="cls-3" d="M1354.68,773.3V782h-14.93v12.72H1351v7.69h-11.26V817h15.5v8.65H1330V773.3Z"/><path class="cls-3" d="M1387.71,783.86l-7,2.88c-1.06-4.4-3.26-6.08-6.28-6.08s-4.32,1.76-4.32,5.28c0,9.12,17.7,9.68,17.7,25.69,0,9.43-5.3,14.72-13.87,14.72-6.85,0-12.8-4.56-14.1-12.64l7.5-2.32c1.14,5.12,3.83,6.88,6.6,6.88,3.27,0,4.65-1.68,4.65-5.29,0-10.63-18.1-11.12-18.1-26.56,0-7.76,4.89-13.84,13.21-13.84C1381.43,772.58,1385.51,776.9,1387.71,783.86Z"/><path class="cls-3" d="M1420,783.86l-7,2.88c-1.06-4.4-3.26-6.08-6.28-6.08s-4.32,1.76-4.32,5.28c0,9.12,17.7,9.68,17.7,25.69,0,9.43-5.31,14.72-13.87,14.72-6.85,0-12.8-4.56-14.11-12.64l7.5-2.32c1.15,5.12,3.84,6.88,6.61,6.88,3.26,0,4.65-1.68,4.65-5.29,0-10.63-18.11-11.12-18.11-26.56,0-7.76,4.9-13.84,13.22-13.84C1413.72,772.58,1417.8,776.9,1420,783.86Z"/><path class="cls-3" d="M1437.38,773.3v52.33h-9.71V773.3Z"/><path class="cls-3" d="M1466.9,825.63h-10.44l-12.64-52.33h10.44l7.34,39.45h.16l7.34-39.45h10.52Z"/><path class="cls-3" d="M1510.12,773.3V782H1495.2v12.72h11.25v7.69H1495.2V817h15.5v8.65h-25.29V773.3Z"/><path class="cls-3" d="M546.78,963.17h4.41l-.52,5h-4.42Z"/><path class="cls-3" d="M556.43,963.17h4.41l-.53,5H555.9Z"/><path class="cls-3" d="M566.07,963.17h4.42l-.53,5h-4.42Z"/><path class="cls-3" d="M583.4,944.6l-2.88,23.57h-5.28l2.83-23.57Zm.63-7.83-.58,5h-4.7l.57-5Z"/><path class="cls-3" d="M598.09,949H594l-1.49,11.91a11.74,11.74,0,0,0-.14,1.24c0,1.35.67,2.12,1.92,2.12a6.19,6.19,0,0,0,1.58-.29l0,3.5a8,8,0,0,1-4,1.06c-3.41,0-4.85-1.73-4.85-5.28a11.86,11.86,0,0,1,.1-1.83l1.58-12.19-2.21-.67.44-3.89,2.59-.19,2-5.09h3.69l-.67,5.19h4.08Z"/><path class="cls-3" d="M602.31,936.72h4.23l-.39,3.41a7.67,7.67,0,0,1-3.21,5.86l-1.15-1.2a5.24,5.24,0,0,0,1.72-3.07l-1.72-.39Z"/><path class="cls-3" d="M616,950.45c-.24-2.45-1.34-3-2.59-3-1.53,0-2.4,1.05-2.4,2.73,0,3.6,7.3,3.75,7.3,10.08,0,4.76-3.41,8.36-7.83,8.36-3.55,0-5.76-1.78-6.33-6l3.79-1.54c.33,2.45,1.63,3.36,2.83,3.36s2.4-.87,2.4-3c0-4-7.39-3.93-7.39-10.27a7.64,7.64,0,0,1,7.87-8c3.51,0,5.52,2.12,6,6Z"/><path class="cls-3" d="M630.68,952.28c.86-6,3.46-8.93,7.39-8.93a5.37,5.37,0,0,1,4.13,1.77l.43-1.48h4.85l-3,24.53h-4.61v-2.55h-.1a7.85,7.85,0,0,1-5.85,3c-3,0-4.52-1.87-4.52-5.86a12.23,12.23,0,0,1,.15-2.26Zm9.17,9.26,1.68-12.86a4,4,0,0,0-2.4-.82c-1.68,0-2.69,1.2-3.12,4.42l-1.1,7.87a7.24,7.24,0,0,0-.1,1.39c0,1.73.67,2.11,1.68,2.11A4.56,4.56,0,0,0,639.85,961.54Z"/><path class="cls-3" d="M658.81,936.77l-3.89,31.4h-5.28l3.79-31.4Z"/><path class="cls-3" d="M669.66,936.77l-3.89,31.4h-5.28l3.79-31.4Z"/><path class="cls-3" d="M680.5,952.28c.87-6,3.46-8.93,7.4-8.93a5.36,5.36,0,0,1,4.12,1.77l.44-1.48h4.84l-3,24.53h-4.61v-2.55h-.09a7.89,7.89,0,0,1-5.86,3c-3,0-4.51-1.87-4.51-5.86a13.09,13.09,0,0,1,.14-2.26Zm9.17,9.26,1.68-12.86a4,4,0,0,0-2.4-.82c-1.68,0-2.69,1.2-3.12,4.42l-1.1,7.87a7.24,7.24,0,0,0-.1,1.39c0,1.73.67,2.11,1.68,2.11A4.56,4.56,0,0,0,689.67,961.54Z"/><path class="cls-3" d="M708.3,936.77l-1.16,8.93h.1a7.8,7.8,0,0,1,5.47-2.5c3,0,4.47,1.88,4.47,5.72a20.45,20.45,0,0,1-.15,2.35l-1.15,8.25c-.86,6.1-3.46,9-7.34,9a5.34,5.34,0,0,1-4.32-2h-.1l-.38,1.64h-4.56l3.88-31.4Zm-1.68,13.49L705,963.13a3.85,3.85,0,0,0,2.45.86c1.63,0,2.69-1.2,3.12-4.47l1.11-8.06c0-.53.09-1,.09-1.34,0-1.73-.67-2.16-1.68-2.16C708.73,948,707.48,949.06,706.62,950.26Z"/><path class="cls-3" d="M735.27,960.44c-.62,4.61-3.6,8.16-8.88,8.16-4.8,0-7.06-2.88-7.06-6.87a12.13,12.13,0,0,1,.1-1.29l1.2-9c.62-4.56,3.6-8.21,8.88-8.21,4.8,0,7.06,2.84,7.06,6.77a13.93,13.93,0,0,1-.1,1.44Zm-10.51-.2a10.77,10.77,0,0,0-.1,1.2c0,1.92.77,2.74,2.21,2.74,1.83,0,2.74-1.15,3.12-3.94l1.15-8.64a10.39,10.39,0,0,0,.1-1.2c0-1.87-.77-2.73-2.26-2.73-1.77,0-2.73,1.2-3,3.93Z"/><path class="cls-3" d="M744.54,960.15c0,.53-.1,1-.1,1.39,0,1.73.67,2.11,1.68,2.11a4.38,4.38,0,0,0,3.36-2.16l2.26-17.85h5.32l-3,24.53h-4.61v-2.55h-.1a7.8,7.8,0,0,1-5.9,2.93c-3,0-4.47-1.87-4.47-5.76a19.14,19.14,0,0,1,.15-2.31l2.16-16.84h5.28Z"/><path class="cls-3" d="M771.32,949h-4.13l-1.49,11.91a11.74,11.74,0,0,0-.14,1.24c0,1.35.67,2.12,1.92,2.12a6.27,6.27,0,0,0,1.58-.29l.05,3.5a8,8,0,0,1-4,1.06c-3.41,0-4.85-1.73-4.85-5.28a11.86,11.86,0,0,1,.1-1.83l1.58-12.19-2.21-.67.43-3.89,2.6-.19,2-5.09h3.7l-.67,5.19h4.08Z"/><path class="cls-3" d="M780.25,973.16l3.59-29.52h4.61v2.54h.1a7.64,7.64,0,0,1,5.86-3c3,0,4.46,1.88,4.46,5.72a22.79,22.79,0,0,1-.14,2.35l-1.16,8.25c-.86,6.1-3.45,9-7.34,9a5.16,5.16,0,0,1-3.89-1.49h-.09l-.72,6.15Zm8.16-23-1.64,13a4,4,0,0,0,2.4.82c1.64,0,2.69-1.2,3.12-4.47l1.11-8.06c.05-.53.09-1,.09-1.34,0-1.73-.67-2.16-1.68-2.16A4.6,4.6,0,0,0,788.41,950.12Z"/><path class="cls-3" d="M814.18,949.2a2.74,2.74,0,0,0-1.58-.48c-2,0-3.79,2.26-4.9,7l-1.53,12.44h-5.33l3-24.53h4.56l-.33,4.65h.09c1.64-3.65,3.32-5,5.29-5a2.82,2.82,0,0,1,1.82.53Z"/><path class="cls-3" d="M831.37,960.44c-.63,4.61-3.6,8.16-8.88,8.16-4.8,0-7.06-2.88-7.06-6.87a12.13,12.13,0,0,1,.1-1.29l1.19-9c.63-4.56,3.61-8.21,8.89-8.21,4.8,0,7,2.84,7,6.77,0,.48,0,1-.09,1.44Zm-10.52-.2c0,.44-.09.82-.09,1.2,0,1.92.77,2.74,2.21,2.74,1.82,0,2.73-1.15,3.12-3.94l1.15-8.64a10.3,10.3,0,0,0,.09-1.2c0-1.87-.76-2.73-2.25-2.73-1.78,0-2.74,1.2-3,3.93Z"/><path class="cls-3" d="M846.82,950.64c-.29-2.25-1-2.88-2.16-2.88-1.78,0-2.78,1.2-3.22,4.42l-1.15,8.55c0,.43-.09.76-.09,1.1,0,1.68.72,2.3,2,2.3s2.59-.91,3.36-3.21l3.89,1.29c-1.63,4.18-4.27,6.39-8.45,6.39s-6.14-2.79-6.14-6.34c0-.43,0-.86.09-1.29l1.2-9c.63-4.75,3.32-8.79,8.6-8.79,3.41,0,5.66,2.12,6.09,6.15Z"/><path class="cls-3" d="M858.15,956.84l-.43,3.36a9,9,0,0,0-.1,1.1c0,2,.86,2.83,2.5,2.83s2.49-.91,3.45-3.4l3.89,1.24c-1.58,4.47-4.17,6.63-8.4,6.63-4.51,0-6.77-2.88-6.77-6.91a11.2,11.2,0,0,1,.1-1.3l1.2-9c.62-4.51,3.5-8.21,8.64-8.21,4.42,0,6.53,3,6.53,7a13.93,13.93,0,0,1-.1,1.44l-.67,5.24Zm.48-3.51h5l.29-2.21A8.4,8.4,0,0,0,864,950c0-1.78-.72-2.45-2.07-2.45-1.72,0-2.64,1.06-3,3.55Z"/><path class="cls-3" d="M882.24,950.45c-.24-2.45-1.34-3-2.59-3-1.53,0-2.4,1.05-2.4,2.73,0,3.6,7.3,3.75,7.3,10.08,0,4.76-3.41,8.36-7.83,8.36-3.55,0-5.76-1.78-6.33-6l3.79-1.54c.34,2.45,1.63,3.36,2.83,3.36s2.4-.87,2.4-3c0-4-7.39-3.93-7.39-10.27a7.64,7.64,0,0,1,7.87-8c3.51,0,5.52,2.12,6,6Z"/><path class="cls-3" d="M899,950.45c-.24-2.45-1.35-3-2.6-3-1.53,0-2.4,1.05-2.4,2.73,0,3.6,7.3,3.75,7.3,10.08,0,4.76-3.41,8.36-7.82,8.36-3.56,0-5.76-1.78-6.34-6l3.79-1.54c.34,2.45,1.63,3.36,2.83,3.36s2.4-.87,2.4-3c0-4-7.39-3.93-7.39-10.27a7.64,7.64,0,0,1,7.87-8c3.51,0,5.53,2.12,6,6Z"/><path class="cls-3" d="M912.58,944.6l-2.88,23.57h-5.28l2.83-23.57Zm.62-7.83-.57,5h-4.71l.58-5Z"/><path class="cls-3" d="M930.53,968.17h-5.28l2.07-16.52c0-.48.09-.91.09-1.29,0-1.78-.67-2.21-1.73-2.21a4.47,4.47,0,0,0-3.4,2.21l-2.16,17.81h-5.33l3-24.53h4.61v2.54h.1a7.64,7.64,0,0,1,5.86-3c3,0,4.46,1.88,4.46,5.72a22.79,22.79,0,0,1-.14,2.35Z"/><path class="cls-3" d="M936.24,951.75c.82-5.76,3.75-8.4,7.35-8.4a5.38,5.38,0,0,1,4.13,1.77l.43-1.48H953l-2.45,20.3c-.82,6.53-4.42,9.51-9.31,9.51a16.71,16.71,0,0,1-6.1-1.3l.91-4.22a14.3,14.3,0,0,0,4.85,1.1c2.64,0,4.13-1.49,4.51-4.51l0-.63a7.21,7.21,0,0,1-5.33,2.26c-3.07,0-4.89-2-4.89-5.91a11.67,11.67,0,0,1,.09-1.72Zm9.36,8.16L947,948.68a4,4,0,0,0-2.4-.82c-1.68,0-2.68.82-3.12,4.08l-.91,6.58a9.52,9.52,0,0,0-.09,1.1c0,1.73.72,2.26,1.82,2.26A4.21,4.21,0,0,0,945.6,959.91Z"/><path class="cls-3" d="M979.06,960.44c-.62,4.61-3.6,8.16-8.88,8.16-4.8,0-7.06-2.88-7.06-6.87a12.13,12.13,0,0,1,.1-1.29l1.2-9c.62-4.56,3.6-8.21,8.88-8.21,4.8,0,7.06,2.84,7.06,6.77a13.93,13.93,0,0,1-.1,1.44Zm-10.51-.2a10.77,10.77,0,0,0-.1,1.2c0,1.92.77,2.74,2.21,2.74,1.82,0,2.74-1.15,3.12-3.94l1.15-8.64a10.39,10.39,0,0,0,.1-1.2c0-1.87-.77-2.73-2.26-2.73-1.77,0-2.73,1.2-3,3.93Z"/><path class="cls-3" d="M995.76,949.2a2.74,2.74,0,0,0-1.58-.48c-2,0-3.79,2.26-4.9,7l-1.53,12.44h-5.33l3-24.53H990l-.33,4.65h.09c1.64-3.65,3.32-5,5.29-5a2.82,2.82,0,0,1,1.82.53Z"/><path class="cls-3" d="M998.07,951.75c.81-5.76,3.74-8.4,7.34-8.4a5.38,5.38,0,0,1,4.13,1.77l.43-1.48h4.8l-2.45,20.3c-.81,6.53-4.41,9.51-9.31,9.51a16.71,16.71,0,0,1-6.1-1.3l.92-4.22a14.26,14.26,0,0,0,4.84,1.1c2.64,0,4.13-1.49,4.52-4.51l0-.63a7.2,7.2,0,0,1-5.32,2.26c-3.08,0-4.9-2-4.9-5.91a10.52,10.52,0,0,1,.1-1.72Zm9.36,8.16,1.44-11.23a4,4,0,0,0-2.4-.82c-1.68,0-2.69.82-3.12,4.08l-.92,6.58c0,.43-.09.76-.09,1.1,0,1.73.72,2.26,1.82,2.26A4.24,4.24,0,0,0,1007.43,959.91Z"/><path class="cls-3" d="M1018,952.28c.86-6,3.45-8.93,7.39-8.93a5.38,5.38,0,0,1,4.13,1.77l.43-1.48h4.85l-3,24.53h-4.61v-2.55h-.09a7.87,7.87,0,0,1-5.86,3c-3,0-4.51-1.87-4.51-5.86a13.09,13.09,0,0,1,.14-2.26Zm9.16,9.26,1.68-12.86a4,4,0,0,0-2.4-.82c-1.68,0-2.68,1.2-3.12,4.42l-1.1,7.87a7.24,7.24,0,0,0-.1,1.39c0,1.73.68,2.11,1.68,2.11A4.56,4.56,0,0,0,1027.15,961.54Z"/><path class="cls-3" d="M1052.31,968.17H1047l2.06-16.52c.05-.48.1-.91.1-1.29,0-1.78-.68-2.21-1.73-2.21a4.49,4.49,0,0,0-3.41,2.21l-2.16,17.81h-5.33l3-24.53h4.61v2.54h.09a7.65,7.65,0,0,1,5.86-3c3,0,4.46,1.88,4.46,5.72a22.79,22.79,0,0,1-.14,2.35Z"/><path class="cls-3" d="M1065.22,944.6l-2.88,23.57h-5.28l2.83-23.57Zm.62-7.83-.58,5h-4.7l.58-5Z"/><path class="cls-3" d="M1079.52,950.64c-.29-2.25-1-2.88-2.16-2.88-1.78,0-2.78,1.2-3.21,4.42l-1.16,8.55c0,.43-.09.76-.09,1.1,0,1.68.72,2.3,2,2.3s2.59-.91,3.36-3.21l3.89,1.29c-1.63,4.18-4.27,6.39-8.45,6.39s-6.14-2.79-6.14-6.34c0-.43,0-.86.09-1.29l1.2-9c.63-4.75,3.32-8.79,8.6-8.79,3.41,0,5.66,2.12,6.09,6.15Z"/><path class="cls-3" d="M1094.21,951.75c.81-5.76,3.74-8.4,7.34-8.4a5.38,5.38,0,0,1,4.13,1.77l.43-1.48h4.8l-2.45,20.3c-.81,6.53-4.41,9.51-9.31,9.51a16.66,16.66,0,0,1-6.09-1.3l.91-4.22a14.25,14.25,0,0,0,4.85,1.1c2.64,0,4.12-1.49,4.51-4.51l.05-.63a7.22,7.22,0,0,1-5.33,2.26c-3.07,0-4.9-2-4.9-5.91a10.52,10.52,0,0,1,.1-1.72Zm9.36,8.16,1.44-11.23a4,4,0,0,0-2.4-.82c-1.68,0-2.69.82-3.12,4.08l-.91,6.58a9.73,9.73,0,0,0-.1,1.1c0,1.73.72,2.26,1.82,2.26A4.24,4.24,0,0,0,1103.57,959.91Z"/><path class="cls-3" d="M1126.08,949.2a2.74,2.74,0,0,0-1.58-.48c-2,0-3.79,2.26-4.9,7l-1.54,12.44h-5.32l3-24.53h4.56l-.33,4.65h.09c1.64-3.65,3.31-5,5.28-5a2.83,2.83,0,0,1,1.83.53Z"/><path class="cls-3" d="M1128.53,952.28c.86-6,3.45-8.93,7.39-8.93a5.38,5.38,0,0,1,4.13,1.77l.43-1.48h4.85l-3,24.53h-4.6v-2.55h-.1a7.87,7.87,0,0,1-5.86,3c-3,0-4.51-1.87-4.51-5.86a13.09,13.09,0,0,1,.14-2.26Zm9.17,9.26,1.68-12.86a4,4,0,0,0-2.4-.82c-1.68,0-2.69,1.2-3.12,4.42l-1.11,7.87a8,8,0,0,0-.09,1.39c0,1.73.67,2.11,1.68,2.11A4.6,4.6,0,0,0,1137.7,961.54Z"/><path class="cls-3" d="M1155.55,944.6l-2.88,23.57h-5.28l2.83-23.57Zm.63-7.83-.58,5h-4.7l.57-5Z"/><path class="cls-3" d="M1173.5,968.17h-5.28l2.07-16.52c0-.48.09-.91.09-1.29,0-1.78-.67-2.21-1.72-2.21a4.47,4.47,0,0,0-3.41,2.21l-2.16,17.81h-5.33l3-24.53h4.6v2.54h.1a7.64,7.64,0,0,1,5.86-3c3,0,4.46,1.88,4.46,5.72a22.79,22.79,0,0,1-.14,2.35Z"/><path class="cls-3" d="M1189.58,950.45c-.24-2.45-1.34-3-2.59-3-1.53,0-2.4,1.05-2.4,2.73,0,3.6,7.3,3.75,7.3,10.08,0,4.76-3.41,8.36-7.83,8.36-3.55,0-5.76-1.78-6.33-6l3.79-1.54c.33,2.45,1.63,3.36,2.83,3.36,1.35,0,2.4-.87,2.4-3,0-4-7.39-3.93-7.39-10.27a7.64,7.64,0,0,1,7.87-8c3.51,0,5.52,2.12,6,6Z"/><path class="cls-3" d="M1204.27,952.28c.86-6,3.46-8.93,7.39-8.93a5.37,5.37,0,0,1,4.13,1.77l.43-1.48h4.85l-3,24.53h-4.61v-2.55h-.1a7.85,7.85,0,0,1-5.85,3c-3,0-4.52-1.87-4.52-5.86a12.23,12.23,0,0,1,.15-2.26Zm9.17,9.26,1.68-12.86a4,4,0,0,0-2.4-.82c-1.68,0-2.69,1.2-3.12,4.42l-1.1,7.87a7.24,7.24,0,0,0-.1,1.39c0,1.73.67,2.11,1.68,2.11A4.58,4.58,0,0,0,1213.44,961.54Z"/><path class="cls-3" d="M1238.59,968.17h-5.28l2.06-16.52c.05-.48.1-.91.1-1.29,0-1.78-.67-2.21-1.73-2.21a4.5,4.5,0,0,0-3.41,2.21l-2.16,17.81h-5.32l3-24.53h4.61v2.54h.1a7.63,7.63,0,0,1,5.85-3c3,0,4.47,1.88,4.47,5.72a20.45,20.45,0,0,1-.15,2.35Z"/><path class="cls-3" d="M1262.11,936.77l-3.89,31.4h-4.61v-2.5h-.09a7.8,7.8,0,0,1-5.86,2.93c-3,0-4.51-1.87-4.51-5.86a13.09,13.09,0,0,1,.14-2.26l1.16-8.2c.86-6,3.45-8.93,7.39-8.93a5.21,5.21,0,0,1,3.84,1.53h.09l1-8.11Zm-13.58,24.87c0,1.77.67,2.21,1.72,2.21a4.43,4.43,0,0,0,3.36-2.21l1.64-13a3.8,3.8,0,0,0-2.36-.82c-1.68,0-2.64,1.2-3.12,4.42l-1.15,8.06A12.93,12.93,0,0,0,1248.53,961.64Z"/><path class="cls-3" d="M1270.7,973.16l3.6-29.52h4.61v2.54h.09a7.67,7.67,0,0,1,5.86-3c3,0,4.47,1.88,4.47,5.72a20.45,20.45,0,0,1-.15,2.35l-1.15,8.25c-.86,6.1-3.46,9-7.35,9a5.14,5.14,0,0,1-3.88-1.49h-.1l-.72,6.15Zm8.16-23-1.63,13a4,4,0,0,0,2.4.82c1.63,0,2.69-1.2,3.12-4.47l1.1-8.06c.05-.53.1-1,.1-1.34,0-1.73-.67-2.16-1.68-2.16A4.6,4.6,0,0,0,1278.86,950.12Z"/><path class="cls-3" d="M1297.2,960.15c0,.53-.1,1-.1,1.39,0,1.73.67,2.11,1.68,2.11a4.38,4.38,0,0,0,3.36-2.16l2.26-17.85h5.33l-3,24.53h-4.61v-2.55h-.1a7.8,7.8,0,0,1-5.9,2.93c-3,0-4.46-1.87-4.46-5.76a19,19,0,0,1,.14-2.31l2.16-16.84h5.28Z"/><path class="cls-3" d="M1321.05,936.77l-3.89,31.4h-5.28l3.8-31.4Z"/><path class="cls-3" d="M1334,950.45c-.24-2.45-1.34-3-2.59-3-1.53,0-2.4,1.05-2.4,2.73,0,3.6,7.3,3.75,7.3,10.08,0,4.76-3.41,8.36-7.83,8.36-3.55,0-5.76-1.78-6.33-6l3.79-1.54c.34,2.45,1.63,3.36,2.83,3.36s2.4-.87,2.4-3c0-4-7.39-3.93-7.39-10.27a7.64,7.64,0,0,1,7.87-8c3.51,0,5.52,2.12,6,6Z"/><path class="cls-3" d="M1345.15,956.84l-.43,3.36a9,9,0,0,0-.1,1.1c0,2,.86,2.83,2.5,2.83s2.49-.91,3.45-3.4l3.89,1.24c-1.58,4.47-4.18,6.63-8.4,6.63-4.51,0-6.77-2.88-6.77-6.91a11.2,11.2,0,0,1,.1-1.3l1.2-9c.62-4.51,3.5-8.21,8.64-8.21,4.41,0,6.53,3,6.53,7a13.93,13.93,0,0,1-.1,1.44l-.67,5.24Zm.48-3.51h5l.29-2.21a8.4,8.4,0,0,0,0-1.1c0-1.78-.72-2.45-2.07-2.45-1.73,0-2.64,1.06-3,3.55Z"/><path class="cls-3" d="M1369.24,950.45c-.24-2.45-1.34-3-2.59-3-1.53,0-2.4,1.05-2.4,2.73,0,3.6,7.3,3.75,7.3,10.08,0,4.76-3.41,8.36-7.83,8.36-3.55,0-5.76-1.78-6.33-6l3.79-1.54c.33,2.45,1.63,3.36,2.83,3.36s2.4-.87,2.4-3c0-4-7.39-3.93-7.39-10.27a7.64,7.64,0,0,1,7.87-8c3.51,0,5.52,2.12,6,6Z"/></svg>