<?xml version="1.0" encoding="utf-8"?>
<!-- Generator: Adobe Illustrator 25.2.0, SVG Export Plug-In . SVG Version: 6.00 Build 0)  -->
<svg version="1.1" id="Layer_1" xmlns="http://www.w3.org/2000/svg" xmlns:xlink="http://www.w3.org/1999/xlink" x="0px" y="0px"
	 viewBox="0 0 1815 909" style="enable-background:new 0 0 1815 909;" xml:space="preserve">
<style type="text/css">
	.st0{fill:none;}
	.st1{fill:#FFFFFF;}
	.st2{fill:#37B14A;}
	.st3{fill:#86C23F;}
</style>
<rect class="st0" width="1815" height="909"/>
<g>
	<g>
		<path class="st1" d="M52.5,628.3c-1.5,0-2.4,0.5-3.9,0.5h-9.2c-1.5,0.5-2.9,0.5-3.9,0.5v39.4h3.9c1.5,0.5,2.9,0.5,4.4,0.5h8.8
			c6.8,0,12.6,0,17-0.5s7.8-1,10.2-2.4c2.4-1,3.9-2.9,4.9-4.9c1-2.4,1.5-5.3,1.5-8.8v-7.3c0-3.9-0.5-6.3-1.5-8.8
			c-1-2.4-2.4-3.9-4.9-4.9c-2.4-1.5-5.8-1.9-10.2-2.4C65.1,628.8,59.3,628.3,52.5,628.3 M-1,758.6c-1.5,0-2.4-1-2.4-2.4v-158
			c0-1.5,1-2.4,2.4-2.4c4.4,0,8.8-0.5,13.6-0.5c4.9-0.5,9.7-0.5,14.6-0.5c4.4,0,8.8-0.5,13.1-0.5H52c10.2,0,19,0.5,26.3,1
			c7.3,1,14.1,1.9,19.4,3.4c5.3,1.5,9.7,3.4,13.1,5.8c3.4,2.9,6.3,5.8,8.3,9.2c2.4,3.4,3.9,7.8,4.4,12.6c1,4.4,1.5,9.7,1.5,16v13.1
			c0,5.8-0.5,11.2-1.5,16c-0.5,4.9-1.9,8.8-4.4,12.6c-1.9,3.4-4.9,6.3-8.3,8.8s-7.8,4.4-13.1,6.3c-5.3,1.5-12.2,2.4-19.4,2.9
			c-7.3,1-16,1-26.3,1H35.5v53c0,1.5-1,2.4-2.4,2.4L-1,758.6z M250.8,628.3c-1,0-2.4,0.5-3.9,0.5h-8.8c-1.5,0.5-2.9,0.5-3.9,0.5
			v37.9c4.9,0.5,10.7,1,17.5,1c6.8,0,12.6-0.5,17-0.5c4.4-0.5,7.8-1,10.2-2.4c2.4-1,3.9-2.4,4.9-4.9c1-1.9,1.5-4.9,1.5-8.3v-7.3
			c0-3.9-0.5-6.8-1.5-8.8c-1-1.9-2.4-3.9-4.9-4.9c-2.4-1-6.3-1.9-10.7-1.9C262.5,628.6,256.7,628.3,250.8,628.3 M283.9,758.6
			c-0.5,0-1.5-0.5-1.9-0.5c0-0.5-0.5-1-1-1.5l-25.3-54.5H244c-2.9,0-6.3-0.5-9.7-0.5v54.5c0,1.5-0.5,2.4-2.4,2.4h-34
			c-1.5,0-1.9-1-1.9-2.4v-158c0-1.5,0.5-1.9,1.9-2.4c9.2-0.5,17.5-1,26.3-1c8.3-0.5,16.5-0.5,24.3-0.5c10.2,0,19.5,0.5,27.2,1
			c7.8,0.5,14.1,1.9,19.9,3.4c5.3,1.5,10.2,3.4,13.6,5.3c3.9,2.4,6.8,5.3,8.8,8.8c2.4,3.9,3.9,7.8,4.9,12.6c1,4.4,1.5,9.7,1.5,16
			V656c0,8.3-1,15.1-2.9,20.9c-1.5,5.5-4.5,10.4-8.8,14.1c-4.4,3.4-10.7,5.8-19.5,7.8c1,1.9,2.4,4.4,3.9,6.3
			c1.5,2.4,2.9,4.9,4.4,7.8l23.3,43.8c0.5,1,0,1.9-1.5,1.9L283.9,758.6z M461.9,427.5c-5.3,0-9.7,0.5-13.6,1.9
			c-3.9,1-7.3,2.9-9.7,5.8s-4.4,6.8-5.8,11.2c-1.5,4.9-1.9,10.7-1.9,17.5v222.7c0,7.3,0.5,13.1,1.9,17.5c1.5,4.9,3.4,8.8,5.8,11.7
			c2.4,2.4,5.8,4.9,9.7,5.8c3.9,1.5,8.3,1.9,13.6,1.9c4.9,0,9.7-0.5,13.6-1.9c3.9-1,6.8-3.4,9.7-5.8c2.4-2.9,4.4-6.8,5.8-11.7
			c1-4.4,1.9-10.2,1.9-17.5V464.5c0-7.3-1-12.6-1.9-17.5c-1.5-4.9-3.4-8.8-5.8-11.2c-2.9-2.9-5.8-5.3-9.7-6.3
			C471.6,428,466.7,427.5,461.9,427.5 M461.9,762c-11.2,0-20.9-1.5-29.7-3.9c-8.8-2.4-16-6.8-21.9-12.6
			c-5.8-5.8-10.2-13.6-13.6-23.3c-2.9-9.7-4.4-21.9-4.4-36.5V465c0-14.1,1.5-26.3,4.4-36c3.4-9.7,7.8-17.5,13.6-23.3
			c5.8-5.8,13.1-10.2,21.9-12.6s18.5-3.9,29.7-3.9s20.9,1.5,29.7,3.9c8.3,2.4,15.6,6.8,21.9,12.6c5.8,5.8,10.2,13.6,13.6,23.3
			c2.9,9.7,4.4,21.9,4.4,36.5v220.3c0,14.6-1.5,26.7-4.4,36.5c-3.4,9.7-7.8,17.5-13.6,23.3c-6.3,5.8-13.6,10.2-21.9,12.6
			C482.8,760.6,473,762,461.9,762L461.9,762z M659.3,427.5h-12.6c-1.5,0.5-2.9,0.5-3.9,0.5v38.4c4.4,0,10.7,0.5,17.5,0.5
			s12.6,0,17-0.5c4.4-0.5,7.8-1,10.2-2.4c2.4-1,3.9-2.4,4.9-4.9c1-1.9,1.5-4.9,1.5-8.3v-7.3c0-3.9-0.5-6.3-1.5-8.8
			c-1-1.9-2.4-3.9-4.9-4.9c-2.9-1-6.3-1.9-10.7-1.9C672.4,427.5,666.6,427.5,659.3,427.5 M692.3,557.3c-0.5,0-1.5-0.5-1.9-0.5
			c-0.5-0.5-0.5-1-1-1.5l-25.3-54.5h-11.7c-2.9,0-6.3-0.5-9.7-0.5v54.5c0,1.5-1,2.4-2.4,2.4h-34c-1.5,0-2.4-1-2.4-2.4v-158
			c0-1.5,1-1.9,2.4-1.9c8.8-1,17.5-1,25.8-1.5c8.8-0.5,16.5-0.5,24.8-0.5c10.2,0,19.5,0.5,27.2,1c7.8,1,14.1,1.9,19.9,3.4
			c5.3,1.5,10.2,3.4,13.6,5.8c3.9,1.9,6.8,4.9,8.8,8.8c2.4,3.4,3.9,7.3,4.9,12.2c0.5,4.4,1,9.7,1,16v14.6c0,8.3-0.5,15.1-2.4,20.9
			c-1.5,5.8-4.4,10.2-8.8,14.1c-4.4,3.4-10.7,6.3-19.5,7.8c1,2.4,2.4,4.4,3.9,6.3c1.5,2.4,2.4,4.9,3.9,7.8l23.3,43.8
			c1,1,0.5,1.9-1,1.9L692.3,557.3z M869.3,497.5c-1.5-0.5-2.4-1-2.4-2.4v-26.7c0-1.5,1-1.9,2.4-1.9h54.5c1.5,0,2.4,0.5,2.4,1.9V550
			c0,0.5,0,1-0.5,1.5l-1.5,1.5c-4.4,1.5-8.8,2.4-12.6,3.9c-4.4,1-8.8,1.5-13.1,2.4c-4.4,0.5-8.3,1-12.6,1c-3.9,0.5-8.3,0.5-11.7,0.5
			c-12.2,0-22.9-1.5-31.6-3.9c-9.2-2.4-17-6.8-23.3-12.6c-6.3-5.8-11.2-13.6-14.1-23.3c-3.4-9.7-4.9-21.9-4.9-36.5v-17
			c0-14.1,1.5-26.3,4.9-36c2.9-9.7,7.8-17.5,14.1-23.3c6.3-6.3,14.1-10.2,23.3-12.6c8.8-2.4,19.4-3.9,31.6-3.9c3.4,0,7.3,0,11.2,0.5
			c3.9,0,7.8,0.5,11.7,1c3.9,0.5,7.3,1.5,10.7,1.9c3.4,1,6.8,1.5,9.2,2.4c1,0.5,1.5,1,1.5,1c0.5,0.5,0.5,1,0.5,1.9l-5.3,30.1
			c0,1.5-1,1.9-2.4,1.9c-11.7-2.4-23.8-3.4-35.5-3.4c-6.3,0-11.7,1-16.5,1.9c-4.4,1.5-8.3,3.4-11.2,6.3c-2.9,2.9-5.3,6.3-6.8,11.2
			c-1.5,4.9-1.9,10.7-1.9,18v19c0,7.3,0.5,13.1,1.9,18c1.5,4.9,3.4,8.8,6.3,11.7c2.4,2.9,6.3,4.9,10.2,5.8c4.4,1.5,9.7,1.9,15.6,1.9
			h7.3c2.4,0,4.9,0,7.3-0.5v-23.8L869.3,497.5z M1060.9,432.4l-17.5,64.7h35L1060.9,432.4z M987,557.3c-1.5,0-1.9-1-1.5-2.4
			l48.1-158c0-1,0.5-1.5,1-1.5c0.5-0.5,1-0.5,1.9-0.5h48.6c0.5,0,1.5,0,1.9,0.5c0,0,0.5,0.5,1,1.5l48.1,158c0.5,1.5,0,2.4-1.5,2.4
			h-37.9c-1.5,0-2.4-1-2.9-2.4l-6.8-24.3h-53l-6.3,24.3c-0.5,1.5-1.5,2.4-2.9,2.4L987,557.3z M1194.6,557.3c-1.5,0-2.4-1-2.4-2.4
			v-158c0-1.5,1-1.9,2.4-1.9h37c1,0,1.5,0,1.9,0.5c0.5,0,1,0.5,1.5,1.5l48.6,82.7c0.5,1.5,1.5,2.4,1.9,3.9c0.5,1,1,2.4,1.5,3.4
			c0.5,1,1,1.5,1,1.9l0.5,1v-92.9c0-1.5,1-1.9,2.4-1.9h34c1.5,0,1.9,0.5,1.9,1.9v158c0,1.5-0.5,2.4-1.9,2.4h-37.4
			c-0.5,0-1.5-0.5-1.9-0.5c-0.5-0.5-1-1-1-1.5l-48.1-82.2c-1.9-3.4-3.4-5.8-3.9-8.3l-1.5-2.9v92.9c0,1.5-1,2.4-2.4,2.4L1194.6,557.3
			z M1401.7,557.3c-1.5,0-2.4-1-2.4-2.4v-158c0-1.5,1-1.9,2.4-1.9h34c1.5,0,1.9,0.5,1.9,1.9v158c0,1.5-0.5,2.4-1.9,2.4L1401.7,557.3
			z M1576.3,560.7c-11.2,0-21.4-1.5-30.6-3.9c-8.8-2.4-16.5-6.8-22.9-12.6c-5.8-5.8-10.7-13.6-14.1-23.3c-2.9-9.7-4.9-21.9-4.9-36.5
			v-17c0-14.1,1.9-26.3,4.9-36c3.4-9.7,8.3-17.5,14.1-23.3c6.3-6.3,14.1-10.2,22.9-12.6c9.2-2.4,19.4-3.9,30.6-3.9
			c3.9,0,7.8,0,11.7,0.5c4.4,0,7.8,0.5,11.7,1c3.4,0.5,6.8,1.5,10.2,1.9c2.9,1,5.8,1.5,8.3,2.4c1,0.5,1.5,1,1.5,1
			c0.5,0.5,0.5,1,0.5,1.9l-4.9,30.1c-0.5,1.5-1.5,1.9-2.9,1.5c-5.3-1-11.2-1.9-17-2.4c-5.8-0.5-11.7-0.5-17.5-0.5
			c-5.3,0-10.7,0.5-15.1,1.5c-4.4,1.5-8.3,3.4-11.2,6.3c-2.9,2.9-4.9,6.8-6.3,11.7c-1.9,4.9-2.4,10.7-2.4,18v19
			c0,7.3,0.5,13.1,2.4,18c1.5,4.9,3.4,8.8,6.3,11.7c2.9,2.9,6.8,5.3,11.2,6.3c4.4,1.5,9.2,1.9,15.1,1.9c6.3,0,12.2,0,18.5-0.5
			c5.8-0.5,11.7-1,18-1.5c1.5-0.5,1.9,0.5,2.4,1.9l4.4,30.6c0,1.5-0.5,2.4-1.9,2.4c-2.4,1-5.3,1.5-8.8,1.9c-3.4,0.5-6.8,1-10.2,1
			c-3.9,0.5-7.8,1-11.7,1C1584.6,560.7,1580.2,560.7,1576.3,560.7L1576.3,560.7z M1742.1,432.4l-17,64.7h35L1742.1,432.4z
			 M1668.7,557.3c-1.5,0-1.9-1-1.5-2.4l48.1-158c0-1,0.5-1.5,1-1.5c0.5-0.5,1-0.5,1.9-0.5h48.6c0.5,0,1.5,0,1.5,0.5
			c0.5,0,1,0.5,1.5,1.5l48.1,158c0.5,1.5,0,2.4-1.5,2.4h-38.4c-1.5,0-1.9-1-2.4-2.4l-6.8-24.3h-53l-6.8,24.3c0,1.5-1,2.4-2.4,2.4
			L1668.7,557.3z"/>
		<path class="st2" d="M1474.2,235.5c0-65.6-55.4-88.5-55.4-88.5v177C1418.8,324,1474.2,301.1,1474.2,235.5L1474.2,235.5z"/>
		<path class="st3" d="M1418.8,324V147c0,0-55.4,22.9-55.4,88.5S1418.8,323.9,1418.8,324L1418.8,324z"/>
	</g>
</g>
</svg>
